<svg xmlns="http://www.w3.org/2000/svg" width="16" height="12" viewBox="0 0 16 12">
    <g fill="none" fill-rule="evenodd">
        <path d="M0-2h16v16H0z"/>
        <path fill="#AA0707" fill-rule="nonzero" d="M13.728 1.85A5.464 5.464 0 0 0 9.845.25a5.5 5.5 0 0 0-3.523 1.274l-.357.298a4.728 4.728 0 0 0-.582-.035H5.331a4.695 4.695 0 0 0-3.284 1.378 4.656 4.656 0 0 0-1.38 3.32 4.66 4.66 0 0 0 1.38 3.322 4.693 4.693 0 0 0 3.336 1.377h4.112c.116.007.233.011.35.011h.015l.086-.002a5.533 5.533 0 0 0 1.802-.336 5.469 5.469 0 0 0 1.98-9.007zM5.383 9.876a3.39 3.39 0 0 1-2.407-.994 3.378 3.378 0 0 1-.001-4.792 3.386 3.386 0 0 1 2.395-.995h.013a3.37 3.37 0 0 1 1.028.157 3.361 3.361 0 0 1 1.277.739c.035.032.07.065.105.1l.234.232 1.133 1.13a.472.472 0 0 1-.336.81.476.476 0 0 1-.336-.139L7.34 4.981l-.238-.237a2.436 2.436 0 0 0-1.72-.7h-.07c-.629.018-1.218.271-1.665.716a2.43 2.43 0 0 0 0 3.45c.463.463 1.08.718 1.736.718h.433l.4.386c.204.203.422.398.65.562H5.383zm7.417-1.21a4.164 4.164 0 0 1-2.88 1.22l-.075.001a4.162 4.162 0 0 1-2.956-1.22l-.202-.202-.476-.474-1.277-1.273a.472.472 0 0 1 .336-.81c.122 0 .243.047.337.139l1.95 1.944.005.005a3.21 3.21 0 0 0 2.283.943 3.26 3.26 0 0 0 1.263-.255 3.215 3.215 0 0 0-1.263-6.18 3.23 3.23 0 0 0-1.801.547 4.246 4.246 0 0 0-.878-.525 4.17 4.17 0 0 1 2.679-.969 4.162 4.162 0 0 1 2.955 7.11z"/>
    </g>
</svg>
