<svg xmlns="http://www.w3.org/2000/svg" width="16" height="10" viewBox="0 0 16 10">
    <g fill="none" fill-rule="evenodd">
        <path d="M0-2h16v16H0z"/>
        <path fill="#22A7F0" d="M15.739 8.072c.196.265.163.63-.098.83-.294.198-.653.165-.85-.1l-1.37-1.792-1.34 1.792c-.195.265-.587.298-.848.1a.596.596 0 0 1-.131-.83l1.567-2.091-1.567-2.057a.636.636 0 0 1 .13-.863.613.613 0 0 1 .85.132l1.338 1.792 1.372-1.792a.608.608 0 0 1 .849-.132c.261.199.294.597.098.863L14.204 5.98l1.535 2.09zm-7.151-.266a1.812 1.812 0 0 1-1.829-1.825c0-.996.817-1.825 1.829-1.825s1.828.83 1.828 1.825a1.812 1.812 0 0 1-1.828 1.825zm-5.388 0a1.812 1.812 0 0 1-1.829-1.825c0-.996.817-1.825 1.829-1.825s1.829.83 1.829 1.825A1.812 1.812 0 0 1 3.2 7.806zm5.388-4.845c-1.143 0-2.155.63-2.678 1.593A3.055 3.055 0 0 0 3.2 2.961c-.686 0-1.306.232-1.829.598V1.003A.59.59 0 0 0 .784.406c-.36 0-.62.265-.62.597v5.044A3.034 3.034 0 0 0 3.2 9.034a3.085 3.085 0 0 0 2.71-1.626c.523.962 1.535 1.626 2.678 1.626 1.698 0 3.07-1.36 3.07-3.053 0-1.66-1.372-3.02-3.07-3.02z"/>
    </g>
</svg>
