<svg xmlns="http://www.w3.org/2000/svg" width="14" height="14" viewBox="0 0 14 14">
    <g fill="none" fill-rule="evenodd">
        <path d="M-1-1h16v16H-1z"/>
        <path fill="#4285F4" d="M13.593 5.805H7.17v2.732h3.585c-.162.875-.644 1.514-1.386 2.01v1.757h2.263c1.323-1.219 2.087-3.013 2.087-5.145 0-.496-.045-.974-.127-1.354z"/>
        <path fill="#34A853" d="M7 14c1.89 0 3.475-.627 4.633-1.696L9.37 10.548c-.626.42-1.428.668-2.37.668-1.823 0-3.366-1.231-3.917-2.886H.745v1.814A6.997 6.997 0 0 0 7 14z"/>
        <path fill="#FBBC05" d="M3.083 8.33c-.14-.42-.22-.869-.22-1.33 0-.461.08-.91.22-1.33V3.856H.745a6.997 6.997 0 0 0 0 6.288L3.083 8.33z"/>
        <path fill="#EA4335" d="M7 2.784c1.028 0 1.95.353 2.676 1.047l2.008-2.008C10.47.693 8.887 0 7 0A6.997 6.997 0 0 0 .745 3.856L3.083 5.67C3.633 4.015 5.177 2.784 7 2.784z"/>
    </g>
</svg>
