<svg xmlns="http://www.w3.org/2000/svg" width="16" height="10" viewBox="0 0 16 10">
    <g fill="none" fill-rule="evenodd">
        <path d="M0-3h16v16H0z"/>
        <path fill="#2B66A0" d="M8.521 2.437c.982 0 1.832.574 2.251 1.413.357-.241.777-.37 1.207-.37 1.218 0 2.205 1.013 2.205 2.262 0 .055-.003.11-.007.164.835.133 1.473.874 1.473 1.768a1.795 1.795 0 0 1-1.089 1.66H5.818C4.708 9.325 3.81 8.4 3.81 7.258c0-1.146.905-2.074 2.02-2.074.056 0 .112.002.167.007a2.794 2.794 0 0 1-.005-.159c0-1.434 1.133-2.596 2.53-2.596zM8.808.018c1.687 0 3.075 1.317 3.24 3.004l-.069-.001c-.36 0-.717.075-1.046.22A2.94 2.94 0 0 0 8.52 1.979c-1.545 0-2.819 1.215-2.962 2.763-1.234.14-2.196 1.215-2.196 2.518 0 .51.15 1.008.435 1.432H2.426C1.27 8.69.333 7.729.333 6.543c0-1.134.856-2.062 1.941-2.142a2.496 2.496 0 0 1-.056-.523c0-1.336 1.055-2.419 2.357-2.419.47 0 .93.144 1.316.413C6.425.773 7.531.018 8.808.018z"/>
    </g>
</svg>
