<svg xmlns="http://www.w3.org/2000/svg" width="16" height="16" viewBox="0 0 16 16">
    <path fill="#000" fill-rule="nonzero" d="M7.993 6.325c-1.156 0-2.109.954-2.109 2.143 0 1.189.953 2.13 2.11 2.13 1.156 0 2.108-.955 2.108-2.144 0-1.19-.939-2.13-2.109-2.13zm5.143-3.097h-1.633l-.367-1.01c-.19-.484-.762-.885-1.265-.885H6.129c-.517 0-1.075.401-1.265.885l-.367 1.01H2.864C1.83 3.228 1 4.085 1 5.122v6.65c0 1.051.844 1.895 1.864 1.895h10.272c1.034 0 1.864-.858 1.864-1.895V5.136a1.877 1.877 0 0 0-1.864-1.908zm-5.143 8.558c-1.81 0-3.265-1.493-3.265-3.318s1.47-3.319 3.265-3.319c1.81 0 3.265 1.494 3.265 3.319s-1.455 3.318-3.265 3.318z"/>
</svg>
