<svg xmlns="http://www.w3.org/2000/svg" width="38" height="29" viewBox="0 0 38 29">
    <path fill="#1DA1F2" fill-rule="evenodd" d="M11.668 28.8c14 0 21.657-11.04 21.657-20.615 0-.313-.007-.625-.022-.936A15.074 15.074 0 0 0 37.1 3.497a15.77 15.77 0 0 1-4.371 1.14c1.572-.896 2.778-2.315 3.347-4.006a15.732 15.732 0 0 1-4.833 1.758C29.853.98 27.876.1 25.687.1c-4.204 0-7.613 3.245-7.613 7.244 0 .569.068 1.122.198 1.652-6.326-.303-11.936-3.185-15.69-7.57a6.962 6.962 0 0 0-1.03 3.642c0 2.514 1.343 4.733 3.387 6.031a7.845 7.845 0 0 1-3.448-.907l-.001.093c0 3.509 2.624 6.438 6.107 7.103a7.994 7.994 0 0 1-3.438.124c.97 2.878 3.78 4.974 7.11 5.032-2.604 1.943-5.887 3.101-9.453 3.101-.614 0-1.22-.033-1.816-.1A22.341 22.341 0 0 0 11.668 28.8"/>
</svg>
