<svg xmlns="http://www.w3.org/2000/svg" width="92" height="30" viewBox="0 0 92 30">
    <g fill="none" fill-rule="evenodd">
        <path fill="#6FDA44" d="M25.31 7.037c-3.4 0-6.035 2.373-7.108 6.275-1.637-2.637-2.874-5.803-3.6-8.47h-3.66V15.07c0 2.015-1.53 3.66-3.408 3.66-1.876 0-3.407-1.645-3.407-3.66V4.842H.467v10.229c-.015 4.19 3.16 7.628 7.06 7.628 3.9 0 7.075-3.439 7.075-7.628v-1.715c.712 1.594 1.583 3.202 2.642 4.632L15 29.311h3.747l1.624-8.214c1.424.98 3.061 1.594 4.939 1.594 4.011 0 7.28-3.53 7.28-7.842 0-4.303-3.268-7.813-7.28-7.813zm0 11.708c-1.477 0-2.862-.672-4.119-1.766l.307-1.543.013-.057c.271-1.645 1.137-4.404 3.8-4.404 1.995 0 3.62 1.744 3.62 3.888-.007 2.138-1.63 3.882-3.62 3.882z"/>
        <path fill="#000" d="M85.88 14.292c2.216-1.343 3.72-3.896 3.72-6.82H86.48c0 2.466-1.863 4.468-4.158 4.468h-.42V.344h-3.122v21.911H81.9v-6.96h.374c.306 0 .705.213.885.477l4.432 6.485h3.741L85.88 14.29h.001zm-10.475-3.503c-2.082 0-3.766 1.815-3.766 4.046v7.42h-3.123V7.48h3.123v2.273s1.33-2.28 4.065-2.28h.96v3.317h-1.26v-.001zm-16.153 8.686c-2.368 0-4.285-2.059-4.285-4.604s1.923-4.604 4.285-4.604c2.37 0 4.287 2.059 4.287 4.604 0 2.538-1.917 4.604-4.286 4.604h-.001zm0-12.438c-4.025 0-7.287 3.509-7.287 7.827 0 4.325 3.268 7.827 7.288 7.827 4.026 0 7.294-3.501 7.294-7.827 0-4.324-3.268-7.827-7.294-7.827h-.001zm-15.486.443l2.362 10.229 2.602-10.23h3.102l-4 14.784h-3.101l-2.456-10.295-2.449 10.287h-3.101l-4-14.784h3.101l2.602 10.23L40.79 7.47h2.974v.009z"/>
    </g>
</svg>
