<svg xmlns="http://www.w3.org/2000/svg" width="78" height="23" viewBox="0 0 78 23">
    <path fill="#D81F26" fill-rule="evenodd" d="M40.48 8.562h4.491v3.5h-4.49v7.94h-3.22V.6h9.166v3.5H40.48v4.462h.002zM77.7.6l-4.163 10.653L77.7 23c-1.23-.175-2.46-.415-3.692-.635l-2.357-6.475-2.4 5.95c-1.189-.218-2.338-.284-3.527-.459l4.225-10.26L66.135.6h3.526l2.154 5.885L74.111.6H77.7zM60.105 20.943c1.046.066 2.154.131 3.22.262V.6h-3.22v20.343zm-8.346-4.003c1.866.044 3.753.197 5.578.306v3.457c-2.933-.198-5.865-.394-8.86-.46V.6h3.282v16.34zM35.149 4.1h-3.405v16.1c-1.107 0-2.214 0-3.28.045V4.1H25.06V.6h10.089v3.5-.001zM17.143 8.803c1.272 0 3.22-.066 4.39-.066v3.5c-1.456 0-3.159 0-4.39.066v5.206c1.928-.13 3.856-.306 5.804-.372v3.368l-9.084.766V.6h9.084v3.5h-5.804v4.703zm-6.459 12.753c-1.168.22-2.358.285-3.588.46L3.343 10.29V22.52C2.174 22.65 1.108 22.825 0 23V.6h3.118l4.264 12.71V.6h3.302v20.956z"/>
</svg>
