<svg xmlns="http://www.w3.org/2000/svg" width="75" height="27" viewBox="0 0 75 27">
    <g fill="none" fill-rule="evenodd">
        <path fill="#2360A5" d="M.855 13.565c0-6.745 16.328-12.213 36.471-12.213 20.142 0 36.471 5.467 36.471 12.212s-16.329 12.213-36.47 12.213C17.183 25.777.854 20.31.854 13.564c0 0 0 6.745 0 0zM.1 26.8h74.2V.2H.1v26.6z"/>
        <path fill="#F6D33C" d="M1.287 13.5c0-6.678 16.344-12.09 36.507-12.09C57.955 1.41 74.3 6.821 74.3 13.5c0 6.677-16.345 12.09-36.506 12.09-20.162 0-36.507-5.413-36.507-12.09 0 0 0 6.677 0 0"/>
        <path fill="#2360A5" d="M57.395 12.348l-.65 1.72h1.43l-.78-1.72zM53.65 8.059h8.833s-.174.402-.174.624c0 .225.153.627.153.627l3.528 8.399h-6.625s.151-.246.065-.446c-.183-.446-.363-.893-.54-1.341H56.16s-.542 1.184-.542 1.408c0 .221.175.402.175.402h-5.456l3.42-8.78s.13-.18.13-.403c0-.221-.238-.49-.238-.49zm-15.935.105h11.048v2.917s-.238-.216-.541-.216h-4.527v.8h3.941v2.572s-.26-.217-.54-.217H43.65v.886h4.635c.26 0 .413-.41.413-.41v3.198H37.716s.194-.282.194-.476V8.876c.001-.346-.194-.712-.194-.712h-.001zm-17.18-.068h6.175s-.173.286-.173.55v2.95l2.188-2.75s.13-.2.13-.397V8.14h6.284l-2.665 3.654s-.13.153-.13.264c0 .11.108.263.108.263l3.424 5.35h-7.562s.13-.198.13-.396-.13-.441-.13-.441l-1.8-2.883v3.126c0 .264.196.616.196.616h-6.176s.174-.242.174-.507v-8.54c0-.264-.174-.551-.174-.551zm-9.728-.021H17.3s-.174.268-.174.602v8.221c0 .447.195.826.195.826h-6.537s.194-.38.194-.76v-8.22c0-.311-.172-.67-.172-.67v.001z"/>
    </g>
</svg>
