<svg xmlns="http://www.w3.org/2000/svg" width="111" height="34" viewBox="0 0 111 34">
    <path fill="#2EBD59" fill-rule="nonzero" d="M16.69.002C7.53.002.105 7.52.105 16.796c0 9.276 7.425 16.794 16.585 16.794s16.585-7.518 16.585-16.794C33.275 7.52 25.85.002 16.69.002zm7.605 24.222c-.297.494-.934.65-1.42.348-3.895-2.41-8.797-2.955-14.57-1.62a1.033 1.033 0 0 1-1.238-.787 1.046 1.046 0 0 1 .777-1.253c6.318-1.462 11.737-.833 16.109 1.872.487.303.641.947.342 1.44zm2.03-4.573c-.375.617-1.17.81-1.778.431-4.457-2.774-11.254-3.577-16.526-1.957a1.292 1.292 0 0 1-1.614-.872 1.314 1.314 0 0 1 .862-1.633c6.023-1.85 13.511-.954 18.63 2.231.608.38.8 1.186.426 1.8zm.175-4.761c-5.346-3.215-14.164-3.511-19.268-1.943a1.548 1.548 0 0 1-1.934-1.046 1.575 1.575 0 0 1 1.034-1.96c5.858-1.8 15.597-1.453 21.75 2.247.738.443.98 1.407.543 2.152a1.54 1.54 0 0 1-2.125.55zm18.727.616c-2.864-.692-3.373-1.177-3.373-2.197 0-.963.895-1.612 2.227-1.612 1.292 0 2.572.493 3.914 1.506.041.03.092.043.142.035a.185.185 0 0 0 .124-.077l1.398-1.996a.192.192 0 0 0-.036-.258c-1.597-1.299-3.396-1.93-5.5-1.93-3.091 0-5.25 1.88-5.25 4.567 0 2.883 1.862 3.904 5.082 4.692 2.74.64 3.202 1.175 3.202 2.132 0 1.06-.935 1.72-2.44 1.72-1.671 0-3.035-.57-4.56-1.908a.185.185 0 0 0-.266.022l-1.568 1.89a.19.19 0 0 0 .019.263c1.774 1.604 3.957 2.451 6.312 2.451 3.331 0 5.484-1.843 5.484-4.696.006-2.409-1.418-3.743-4.905-4.602l-.006-.002zm12.449-2.86c-1.444 0-2.629.576-3.605 1.756v-1.328a.19.19 0 0 0-.188-.19H51.32a.189.189 0 0 0-.187.19v14.76c0 .105.084.19.187.19h2.564a.189.189 0 0 0 .188-.19v-4.66c.977 1.111 2.161 1.654 3.605 1.654 2.683 0 5.4-2.092 5.4-6.09.004-4-2.713-6.092-5.397-6.092h-.003zm2.418 6.091c0 2.037-1.238 3.457-3.012 3.457-1.753 0-3.076-1.485-3.076-3.457 0-1.97 1.323-3.457 3.076-3.457 1.745 0 3.012 1.454 3.012 3.457zm9.944-6.091c-3.456 0-6.163 2.694-6.163 6.135 0 3.403 2.689 6.07 6.12 6.07 3.469 0 6.184-2.686 6.184-6.114 0-3.415-2.697-6.09-6.141-6.09v-.001zm0 9.569c-1.838 0-3.224-1.496-3.224-3.479 0-1.99 1.338-3.436 3.182-3.436 1.85 0 3.245 1.496 3.245 3.48 0 1.99-1.347 3.435-3.203 3.435zm13.52-9.332h-2.821v-2.92a.189.189 0 0 0-.187-.191h-2.564a.19.19 0 0 0-.188.19v2.921h-1.233a.189.189 0 0 0-.186.19v2.232c0 .105.083.19.186.19h1.233v5.774c0 2.334 1.147 3.517 3.409 3.517.92 0 1.683-.193 2.402-.606a.19.19 0 0 0 .095-.164V21.89a.19.19 0 0 0-.09-.162.186.186 0 0 0-.182-.009 3.199 3.199 0 0 1-1.505.368c-.823 0-1.19-.378-1.19-1.226v-5.366h2.822a.189.189 0 0 0 .187-.19v-2.231a.183.183 0 0 0-.185-.19l-.002-.002zm9.832.012v-.36c0-1.055.4-1.525 1.296-1.525.534 0 .963.107 1.444.27a.19.19 0 0 0 .247-.18v-2.19a.19.19 0 0 0-.133-.181 6.957 6.957 0 0 0-2.131-.31c-2.368 0-3.62 1.35-3.62 3.904v.549H89.26a.19.19 0 0 0-.188.19v2.243c0 .105.085.19.188.19h1.232v8.906c0 .105.084.19.187.19h2.564a.19.19 0 0 0 .188-.19v-8.905h2.394l3.667 8.904c-.416.935-.826 1.121-1.384 1.121-.452 0-.928-.136-1.414-.406a.19.19 0 0 0-.15-.014.19.19 0 0 0-.11.103l-.87 1.93a.19.19 0 0 0 .081.246c.908.497 1.726.71 2.739.71 1.893 0 2.94-.893 3.862-3.296l4.448-11.64a.192.192 0 0 0-.02-.176.186.186 0 0 0-.154-.083h-2.67a.189.189 0 0 0-.177.128l-2.734 7.909-2.995-7.914a.187.187 0 0 0-.175-.123h-4.381zm-5.7-.012h-2.564a.19.19 0 0 0-.188.19v11.328c0 .105.084.19.188.19h2.564a.19.19 0 0 0 .188-.19V13.074c0-.05-.02-.099-.055-.134a.186.186 0 0 0-.133-.056zm-1.268-5.158a1.85 1.85 0 0 0-1.84 1.862c0 1.029.825 1.863 1.84 1.863a1.85 1.85 0 0 0 1.84-1.863 1.85 1.85 0 0 0-1.839-1.862zm22.463 8.8a1.809 1.809 0 0 1-1.805-1.827c0-1.002.8-1.837 1.814-1.837 1.015 0 1.805.825 1.805 1.827s-.8 1.837-1.815 1.837zm.01-3.482c-.925 0-1.624.744-1.624 1.655 0 .91.694 1.645 1.614 1.645.924 0 1.624-.744 1.624-1.655s-.695-1.645-1.614-1.645zm.4 1.832l.51.724h-.43l-.46-.664h-.395v.664h-.36v-1.918h.844c.44 0 .73.228.73.612.002.314-.178.507-.438.583h-.001zm-.305-.865h-.47v.607h.47c.234 0 .374-.116.374-.304 0-.197-.14-.303-.374-.303z"/>
</svg>
